<svg xmlns="http://www.w3.org/2000/svg" xmlns:xlink="http://www.w3.org/1999/xlink" width="500" zoomAndPan="magnify" viewBox="0 0 375 374.999991" height="500" preserveAspectRatio="xMidYMid meet" version="1.0"><defs><g/><clipPath id="eceacd6aef"><path d="M 100.746094 56.230469 L 273.996094 56.230469 L 273.996094 253 L 100.746094 253 Z M 100.746094 56.230469 " clip-rule="nonzero"/></clipPath><clipPath id="9dcc19404b"><path d="M 149 252 L 226 252 L 226 300.730469 L 149 300.730469 Z M 149 252 " clip-rule="nonzero"/></clipPath><clipPath id="7cb2bb0746"><path d="M 100.746094 56.230469 L 273.996094 56.230469 L 273.996094 253 L 100.746094 253 Z M 100.746094 56.230469 " clip-rule="nonzero"/></clipPath><clipPath id="5eea1fe387"><path d="M 149 252 L 226 252 L 226 300.730469 L 149 300.730469 Z M 149 252 " clip-rule="nonzero"/></clipPath><clipPath id="acdce012bf"><path d="M 41.351562 0 L 333.851562 0 L 333.851562 182.25 L 41.351562 182.25 Z M 41.351562 0 " clip-rule="nonzero"/></clipPath></defs><g clip-path="url(#eceacd6aef)"><path fill="#f19e05" d="M 184.355469 121.847656 C 181.855469 122.515625 180.351562 125.113281 181.023438 127.617188 L 184.632812 141.09375 C 185.304688 143.597656 187.902344 145.097656 190.40625 144.425781 C 192.910156 143.753906 194.410156 141.15625 193.738281 138.652344 L 190.128906 125.179688 C 189.457031 122.671875 186.859375 121.175781 184.355469 121.847656 Z M 196.644531 121.847656 C 194.136719 122.515625 192.640625 125.113281 193.308594 127.617188 L 196.921875 141.09375 C 197.589844 143.597656 200.1875 145.097656 202.691406 144.425781 C 205.195312 143.753906 206.691406 141.15625 206.023438 138.652344 L 202.414062 125.179688 C 201.742188 122.671875 199.144531 121.175781 196.644531 121.847656 Z M 172.070312 121.847656 C 169.570312 122.515625 168.070312 125.113281 168.742188 127.617188 L 172.351562 141.09375 C 173.019531 143.597656 175.617188 145.097656 178.121094 144.425781 C 180.625 143.753906 182.125 141.15625 181.453125 138.652344 L 177.84375 125.179688 C 177.171875 122.671875 174.574219 121.175781 172.070312 121.847656 Z M 187.371094 56.203125 L 187.390625 56.203125 C 235.199219 56.203125 273.957031 94.96875 273.957031 142.792969 C 273.957031 169.960938 261.597656 194.398438 241.871094 210.078125 C 229.511719 219.90625 220.820312 233.136719 218.972656 252.898438 L 209.15625 252.898438 L 224.410156 140.378906 C 224.5 139.714844 224.542969 139.113281 224.542969 138.582031 C 224.542969 135.5 223.457031 132.695312 221.589844 130.542969 C 219.722656 128.386719 217.097656 126.917969 214.035156 126.503906 C 213.402344 126.417969 212.8125 126.375 212.269531 126.375 C 209.9375 126.375 208.046875 128.265625 208.046875 130.597656 C 208.046875 132.925781 209.9375 134.820312 212.269531 134.820312 C 212.550781 134.820312 212.761719 134.828125 212.914062 134.847656 C 213.871094 134.976562 214.675781 135.414062 215.226562 136.050781 C 215.777344 136.6875 216.105469 137.570312 216.105469 138.582031 C 216.105469 138.855469 216.089844 139.082031 216.070312 139.257812 L 200.664062 252.898438 L 174.101562 252.898438 L 158.695312 139.257812 C 158.671875 139.082031 158.660156 138.855469 158.660156 138.582031 C 158.660156 137.570312 158.984375 136.6875 159.539062 136.050781 C 160.085938 135.414062 160.890625 134.976562 161.847656 134.847656 C 162 134.828125 162.214844 134.820312 162.492188 134.820312 C 164.824219 134.820312 166.714844 132.925781 166.714844 130.597656 C 166.714844 128.265625 164.824219 126.375 162.492188 126.375 C 161.953125 126.375 161.359375 126.417969 160.726562 126.503906 C 157.664062 126.917969 155.039062 128.386719 153.171875 130.542969 C 151.308594 132.695312 150.21875 135.5 150.21875 138.582031 C 150.21875 139.113281 150.261719 139.714844 150.351562 140.378906 L 165.605469 252.898438 L 155.789062 252.898438 C 153.945312 233.136719 145.253906 219.90625 132.890625 210.078125 C 113.164062 194.398438 100.804688 169.960938 100.804688 142.792969 C 100.804688 94.96875 139.566406 56.203125 187.371094 56.203125 " fill-opacity="1" fill-rule="evenodd"/></g><g clip-path="url(#9dcc19404b)"><path fill="#002130" d="M 154.425781 282.394531 L 220.339844 282.394531 C 223.023438 282.394531 225.222656 280.195312 225.222656 277.507812 L 225.222656 276.101562 C 225.222656 273.414062 223.023438 271.222656 220.339844 271.222656 L 154.425781 271.222656 C 151.738281 271.222656 149.542969 273.414062 149.542969 276.101562 L 149.542969 277.507812 C 149.542969 280.195312 151.738281 282.394531 154.425781 282.394531 Z M 171.390625 300.710938 L 203.371094 300.710938 C 210.105469 300.710938 215.773438 295.898438 217.105469 289.542969 L 157.65625 289.542969 C 158.988281 295.898438 164.65625 300.710938 171.390625 300.710938 Z M 218.972656 252.898438 L 220.339844 252.898438 C 223.023438 252.898438 225.222656 255.097656 225.222656 257.78125 L 225.222656 259.1875 C 225.222656 261.875 223.023438 264.074219 220.339844 264.074219 L 154.425781 264.074219 C 151.738281 264.074219 149.542969 261.875 149.542969 259.1875 L 149.542969 257.78125 C 149.542969 255.097656 151.738281 252.898438 154.425781 252.898438 L 218.972656 252.898438 " fill-opacity="1" fill-rule="evenodd"/></g><g clip-path="url(#7cb2bb0746)"><path fill="#74546f" d="M 184.355469 121.847656 C 181.855469 122.515625 180.351562 125.113281 181.023438 127.617188 L 184.632812 141.09375 C 185.304688 143.597656 187.902344 145.097656 190.40625 144.425781 C 192.910156 143.753906 194.410156 141.15625 193.738281 138.652344 L 190.128906 125.179688 C 189.457031 122.671875 186.859375 121.175781 184.355469 121.847656 Z M 196.644531 121.847656 C 194.136719 122.515625 192.640625 125.113281 193.308594 127.617188 L 196.921875 141.09375 C 197.589844 143.597656 200.1875 145.097656 202.691406 144.425781 C 205.195312 143.753906 206.691406 141.15625 206.023438 138.652344 L 202.414062 125.179688 C 201.742188 122.671875 199.144531 121.175781 196.644531 121.847656 Z M 172.070312 121.847656 C 169.570312 122.515625 168.070312 125.113281 168.742188 127.617188 L 172.351562 141.09375 C 173.019531 143.597656 175.617188 145.097656 178.121094 144.425781 C 180.625 143.753906 182.125 141.15625 181.453125 138.652344 L 177.84375 125.179688 C 177.171875 122.671875 174.574219 121.175781 172.070312 121.847656 Z M 187.371094 56.203125 L 187.390625 56.203125 C 235.199219 56.203125 273.957031 94.96875 273.957031 142.792969 C 273.957031 169.960938 261.597656 194.398438 241.871094 210.078125 C 229.511719 219.90625 220.820312 233.136719 218.972656 252.898438 L 209.15625 252.898438 L 224.410156 140.378906 C 224.5 139.714844 224.542969 139.113281 224.542969 138.582031 C 224.542969 135.5 223.457031 132.695312 221.589844 130.542969 C 219.722656 128.386719 217.097656 126.917969 214.035156 126.503906 C 213.402344 126.417969 212.8125 126.375 212.269531 126.375 C 209.9375 126.375 208.046875 128.265625 208.046875 130.597656 C 208.046875 132.925781 209.9375 134.820312 212.269531 134.820312 C 212.550781 134.820312 212.761719 134.828125 212.914062 134.847656 C 213.871094 134.976562 214.675781 135.414062 215.226562 136.050781 C 215.777344 136.6875 216.105469 137.570312 216.105469 138.582031 C 216.105469 138.855469 216.089844 139.082031 216.070312 139.257812 L 200.664062 252.898438 L 174.101562 252.898438 L 158.695312 139.257812 C 158.671875 139.082031 158.660156 138.855469 158.660156 138.582031 C 158.660156 137.570312 158.984375 136.6875 159.539062 136.050781 C 160.085938 135.414062 160.890625 134.976562 161.847656 134.847656 C 162 134.828125 162.214844 134.820312 162.492188 134.820312 C 164.824219 134.820312 166.714844 132.925781 166.714844 130.597656 C 166.714844 128.265625 164.824219 126.375 162.492188 126.375 C 161.953125 126.375 161.359375 126.417969 160.726562 126.503906 C 157.664062 126.917969 155.039062 128.386719 153.171875 130.542969 C 151.308594 132.695312 150.21875 135.5 150.21875 138.582031 C 150.21875 139.113281 150.261719 139.714844 150.351562 140.378906 L 165.605469 252.898438 L 155.789062 252.898438 C 153.945312 233.136719 145.253906 219.90625 132.890625 210.078125 C 113.164062 194.398438 100.804688 169.960938 100.804688 142.792969 C 100.804688 94.96875 139.566406 56.203125 187.371094 56.203125 " fill-opacity="1" fill-rule="evenodd"/></g><g clip-path="url(#5eea1fe387)"><path fill="#002130" d="M 154.425781 282.394531 L 220.339844 282.394531 C 223.023438 282.394531 225.222656 280.195312 225.222656 277.507812 L 225.222656 276.101562 C 225.222656 273.414062 223.023438 271.222656 220.339844 271.222656 L 154.425781 271.222656 C 151.738281 271.222656 149.542969 273.414062 149.542969 276.101562 L 149.542969 277.507812 C 149.542969 280.195312 151.738281 282.394531 154.425781 282.394531 Z M 171.390625 300.710938 L 203.371094 300.710938 C 210.105469 300.710938 215.773438 295.898438 217.105469 289.542969 L 157.65625 289.542969 C 158.988281 295.898438 164.65625 300.710938 171.390625 300.710938 Z M 218.972656 252.898438 L 220.339844 252.898438 C 223.023438 252.898438 225.222656 255.097656 225.222656 257.78125 L 225.222656 259.1875 C 225.222656 261.875 223.023438 264.074219 220.339844 264.074219 L 154.425781 264.074219 C 151.738281 264.074219 149.542969 261.875 149.542969 259.1875 L 149.542969 257.78125 C 149.542969 255.097656 151.738281 252.898438 154.425781 252.898438 L 218.972656 252.898438 " fill-opacity="1" fill-rule="evenodd"/></g><g fill="#002130" fill-opacity="1"><g transform="translate(66.022368, 247.130563)"><g><path d="M 1.03125 4.96875 C 0.851562 4.289062 0.925781 3.691406 1.25 3.171875 C 1.570312 2.660156 2.070312 2.316406 2.75 2.140625 L 23.375 -3.078125 C 24.0625 -3.253906 24.660156 -3.1875 25.171875 -2.875 C 25.691406 -2.570312 26.039062 -2.082031 26.21875 -1.40625 C 26.394531 -0.695312 26.328125 -0.0859375 26.015625 0.421875 C 25.710938 0.929688 25.21875 1.273438 24.53125 1.453125 L 3.90625 6.671875 C 3.226562 6.847656 2.625 6.785156 2.09375 6.484375 C 1.5625 6.179688 1.207031 5.675781 1.03125 4.96875 Z M 1.03125 4.96875 "/></g></g></g><g fill="#002130" fill-opacity="1"><g transform="translate(69.082541, 260.942616)"><g><path d="M 2.09375 4.546875 C 1.800781 3.910156 1.742188 3.328125 1.921875 2.796875 C 2.097656 2.273438 2.507812 1.867188 3.15625 1.578125 L 22.375 -7.25 C 23.007812 -7.539062 23.585938 -7.582031 24.109375 -7.375 C 24.628906 -7.175781 25.035156 -6.757812 25.328125 -6.125 L 28.3125 0.40625 C 30.0625 4.195312 30.398438 7.609375 29.328125 10.640625 C 28.265625 13.679688 25.894531 16.046875 22.21875 17.734375 C 18.53125 19.429688 15.1875 19.691406 12.1875 18.515625 C 9.195312 17.347656 6.828125 14.867188 5.078125 11.078125 Z M 8.4375 9.21875 C 10.882812 14.550781 14.828125 15.96875 20.265625 13.46875 C 25.703125 10.976562 27.195312 7.066406 24.75 1.734375 L 22.890625 -2.3125 L 6.578125 5.171875 Z M 8.4375 9.21875 "/></g></g></g><g fill="#002130" fill-opacity="1"><g transform="translate(83.116575, 289.43864)"><g><path d="M 3.078125 3.9375 C 2.648438 3.394531 2.460938 2.847656 2.515625 2.296875 C 2.566406 1.742188 2.875 1.25 3.4375 0.8125 L 20.109375 -12.1875 C 20.660156 -12.613281 21.210938 -12.785156 21.765625 -12.703125 C 22.316406 -12.628906 22.804688 -12.320312 23.234375 -11.78125 L 31.28125 -1.453125 C 31.707031 -0.898438 31.914062 -0.375 31.90625 0.125 C 31.90625 0.625 31.675781 1.054688 31.21875 1.421875 C 30.738281 1.785156 30.25 1.910156 29.75 1.796875 C 29.257812 1.691406 28.800781 1.363281 28.375 0.8125 L 21.75 -7.671875 L 16.1875 -3.328125 L 22.375 4.59375 C 22.800781 5.144531 23.007812 5.664062 23 6.15625 C 22.988281 6.644531 22.742188 7.078125 22.265625 7.453125 C 21.804688 7.816406 21.335938 7.941406 20.859375 7.828125 C 20.378906 7.710938 19.925781 7.378906 19.5 6.828125 L 13.3125 -1.09375 L 7.421875 3.5 L 14.046875 11.984375 C 14.472656 12.535156 14.675781 13.066406 14.65625 13.578125 C 14.632812 14.085938 14.382812 14.53125 13.90625 14.90625 C 13.445312 15.257812 12.972656 15.378906 12.484375 15.265625 C 12.003906 15.148438 11.550781 14.816406 11.125 14.265625 Z M 3.078125 3.9375 "/></g></g></g><g fill="#002130" fill-opacity="1"><g transform="translate(99.148574, 309.689303)"><g><path d="M 21.9375 14.109375 C 21.851562 14.429688 21.707031 14.71875 21.5 14.96875 C 21.15625 15.394531 20.6875 15.617188 20.09375 15.640625 C 19.507812 15.671875 18.988281 15.503906 18.53125 15.140625 C 18.238281 14.898438 18.023438 14.59375 17.890625 14.21875 C 17.753906 13.851562 17.742188 13.4375 17.859375 12.96875 L 19.21875 7.828125 L 9.28125 -0.1875 L 4.546875 2.21875 C 4.117188 2.4375 3.707031 2.519531 3.3125 2.46875 C 2.925781 2.414062 2.570312 2.257812 2.25 2 C 1.8125 1.644531 1.535156 1.171875 1.421875 0.578125 C 1.316406 -0.00390625 1.4375 -0.507812 1.78125 -0.9375 C 1.988281 -1.1875 2.242188 -1.382812 2.546875 -1.53125 L 23.828125 -11.984375 C 24.296875 -12.222656 24.785156 -12.300781 25.296875 -12.21875 C 25.804688 -12.132812 26.257812 -11.929688 26.65625 -11.609375 C 27.050781 -11.296875 27.34375 -10.898438 27.53125 -10.421875 C 27.71875 -9.941406 27.75 -9.441406 27.625 -8.921875 Z M 12.8125 -2.015625 L 20.265625 4 L 23.296875 -7.390625 Z M 12.8125 -2.015625 "/></g></g></g><g fill="#002130" fill-opacity="1"><g transform="translate(123.711062, 328.090115)"><g/></g></g><g fill="#002130" fill-opacity="1"><g transform="translate(135.499103, 334.878644)"><g><path d="M 13.3125 4.921875 C 10.96875 4.117188 9.097656 2.914062 7.703125 1.3125 C 6.304688 -0.289062 5.457031 -2.191406 5.15625 -4.390625 C 4.863281 -6.585938 5.148438 -8.941406 6.015625 -11.453125 C 6.878906 -13.972656 8.101562 -16.003906 9.6875 -17.546875 C 11.269531 -19.085938 13.101562 -20.0625 15.1875 -20.46875 C 17.28125 -20.875 19.5 -20.675781 21.84375 -19.875 C 23.34375 -19.351562 24.679688 -18.640625 25.859375 -17.734375 C 27.035156 -16.835938 27.988281 -15.785156 28.71875 -14.578125 C 28.9375 -14.253906 29.0625 -13.945312 29.09375 -13.65625 C 29.125 -13.363281 29.078125 -13.03125 28.953125 -12.65625 C 28.773438 -12.15625 28.488281 -11.78125 28.09375 -11.53125 C 27.695312 -11.289062 27.304688 -11.238281 26.921875 -11.375 C 26.460938 -11.53125 26.046875 -11.847656 25.671875 -12.328125 C 24.953125 -13.390625 24.21875 -14.207031 23.46875 -14.78125 C 22.71875 -15.363281 21.828125 -15.832031 20.796875 -16.1875 C 18.421875 -17.007812 16.363281 -16.882812 14.625 -15.8125 C 12.894531 -14.75 11.535156 -12.773438 10.546875 -9.890625 C 9.546875 -6.992188 9.398438 -4.59375 10.109375 -2.6875 C 10.828125 -0.789062 12.375 0.566406 14.75 1.390625 C 15.726562 1.722656 16.6875 1.882812 17.625 1.875 C 18.5625 1.875 19.675781 1.695312 20.96875 1.34375 C 21.25 1.289062 21.519531 1.253906 21.78125 1.234375 C 22.039062 1.222656 22.296875 1.257812 22.546875 1.34375 C 22.929688 1.476562 23.203125 1.765625 23.359375 2.203125 C 23.515625 2.640625 23.507812 3.113281 23.34375 3.625 C 23.226562 3.96875 23.066406 4.25 22.859375 4.46875 C 22.648438 4.695312 22.359375 4.867188 21.984375 4.984375 C 20.671875 5.484375 19.269531 5.726562 17.78125 5.71875 C 16.300781 5.707031 14.8125 5.441406 13.3125 4.921875 Z M 13.3125 4.921875 "/></g></g></g><g fill="#002130" fill-opacity="1"><g transform="translate(163.179591, 343.877028)"><g><path d="M 23.375 -0.71875 C 23.625 -0.257812 23.726562 0.164062 23.6875 0.5625 C 23.632812 1.125 23.367188 1.5625 22.890625 1.875 C 22.410156 2.195312 21.867188 2.332031 21.265625 2.28125 C 20.878906 2.238281 20.519531 2.109375 20.1875 1.890625 C 19.863281 1.679688 19.597656 1.390625 19.390625 1.015625 L 15.28125 -6.75 C 14.875 -7.550781 14.410156 -8.132812 13.890625 -8.5 C 13.378906 -8.875 12.695312 -9.101562 11.84375 -9.1875 L 8.296875 -9.515625 L 7.53125 -1.421875 C 7.457031 -0.703125 7.195312 -0.15625 6.75 0.21875 C 6.300781 0.601562 5.734375 0.765625 5.046875 0.703125 C 4.347656 0.628906 3.800781 0.363281 3.40625 -0.09375 C 3.019531 -0.550781 2.863281 -1.140625 2.9375 -1.859375 L 4.953125 -22.984375 C 5.015625 -23.679688 5.265625 -24.203125 5.703125 -24.546875 C 6.140625 -24.898438 6.707031 -25.046875 7.40625 -24.984375 L 16.4375 -24.125 C 19.320312 -23.84375 21.453125 -22.988281 22.828125 -21.5625 C 24.210938 -20.132812 24.785156 -18.207031 24.546875 -15.78125 C 24.359375 -13.800781 23.644531 -12.234375 22.40625 -11.078125 C 21.164062 -9.921875 19.507812 -9.257812 17.4375 -9.09375 C 18.113281 -8.851562 18.691406 -8.488281 19.171875 -8 C 19.660156 -7.519531 20.125 -6.875 20.5625 -6.0625 Z M 14.671875 -12.53125 C 16.421875 -12.363281 17.738281 -12.566406 18.625 -13.140625 C 19.507812 -13.722656 20.019531 -14.707031 20.15625 -16.09375 C 20.28125 -17.476562 19.960938 -18.53125 19.203125 -19.25 C 18.441406 -19.96875 17.1875 -20.410156 15.4375 -20.578125 L 9.375 -21.15625 L 8.609375 -13.109375 Z M 14.671875 -12.53125 "/></g></g></g><g fill="#002130" fill-opacity="1"><g transform="translate(192.940571, 346.237821)"><g><path d="M 25.21875 -6.6875 C 25.394531 -6.394531 25.507812 -6.09375 25.5625 -5.78125 C 25.644531 -5.226562 25.492188 -4.726562 25.109375 -4.28125 C 24.734375 -3.832031 24.253906 -3.566406 23.671875 -3.484375 C 23.296875 -3.421875 22.925781 -3.460938 22.5625 -3.609375 C 22.195312 -3.765625 21.882812 -4.039062 21.625 -4.4375 L 18.734375 -8.921875 L 6.125 -7 L 4.703125 -1.859375 C 4.578125 -1.398438 4.359375 -1.039062 4.046875 -0.78125 C 3.742188 -0.53125 3.394531 -0.375 3 -0.3125 C 2.4375 -0.226562 1.898438 -0.34375 1.390625 -0.65625 C 0.878906 -0.96875 0.582031 -1.398438 0.5 -1.953125 C 0.445312 -2.265625 0.472656 -2.585938 0.578125 -2.921875 L 7.234375 -25.6875 C 7.367188 -26.195312 7.632812 -26.609375 8.03125 -26.921875 C 8.4375 -27.242188 8.890625 -27.441406 9.390625 -27.515625 C 9.898438 -27.597656 10.394531 -27.546875 10.875 -27.359375 C 11.363281 -27.179688 11.75 -26.867188 12.03125 -26.421875 Z M 7.15625 -10.8125 L 16.625 -12.265625 L 10.25 -22.1875 Z M 7.15625 -10.8125 "/></g></g></g><g fill="#002130" fill-opacity="1"><g transform="translate(223.868226, 340.73202)"><g><path d="M 10.859375 -4.109375 C 9.140625 -3.398438 7.421875 -2.957031 5.703125 -2.78125 C 3.984375 -2.601562 2.476562 -2.710938 1.1875 -3.109375 C 0.519531 -3.273438 0.046875 -3.707031 -0.234375 -4.40625 C -0.429688 -4.875 -0.457031 -5.335938 -0.3125 -5.796875 C -0.175781 -6.265625 0.078125 -6.578125 0.453125 -6.734375 C 0.859375 -6.898438 1.378906 -6.925781 2.015625 -6.8125 C 3.265625 -6.519531 4.476562 -6.429688 5.65625 -6.546875 C 6.832031 -6.671875 8.0625 -7 9.34375 -7.53125 C 10.96875 -8.195312 12.097656 -8.992188 12.734375 -9.921875 C 13.378906 -10.847656 13.476562 -11.851562 13.03125 -12.9375 C 12.6875 -13.789062 12.007812 -14.28125 11 -14.40625 C 9.988281 -14.539062 8.453125 -14.425781 6.390625 -14.0625 C 4.234375 -13.6875 2.425781 -13.523438 0.96875 -13.578125 C -0.476562 -13.628906 -1.695312 -13.960938 -2.6875 -14.578125 C -3.675781 -15.191406 -4.445312 -16.164062 -5 -17.5 C -5.5625 -18.882812 -5.675781 -20.285156 -5.34375 -21.703125 C -5.019531 -23.128906 -4.28125 -24.4375 -3.125 -25.625 C -1.976562 -26.8125 -0.53125 -27.765625 1.21875 -28.484375 C 4.414062 -29.796875 7.363281 -30.015625 10.0625 -29.140625 C 10.457031 -29.015625 10.765625 -28.859375 10.984375 -28.671875 C 11.203125 -28.492188 11.382812 -28.21875 11.53125 -27.84375 C 11.71875 -27.382812 11.742188 -26.921875 11.609375 -26.453125 C 11.472656 -25.992188 11.21875 -25.691406 10.84375 -25.546875 C 10.613281 -25.453125 10.390625 -25.398438 10.171875 -25.390625 C 9.953125 -25.378906 9.65625 -25.394531 9.28125 -25.4375 C 8.082031 -25.738281 6.984375 -25.875 5.984375 -25.84375 C 4.992188 -25.820312 3.875 -25.550781 2.625 -25.03125 C 1.101562 -24.40625 0.0234375 -23.597656 -0.609375 -22.609375 C -1.242188 -21.628906 -1.335938 -20.597656 -0.890625 -19.515625 C -0.515625 -18.597656 0.164062 -18.050781 1.15625 -17.875 C 2.144531 -17.707031 3.671875 -17.796875 5.734375 -18.140625 C 7.890625 -18.503906 9.703125 -18.664062 11.171875 -18.625 C 12.648438 -18.59375 13.894531 -18.285156 14.90625 -17.703125 C 15.914062 -17.128906 16.679688 -16.207031 17.203125 -14.9375 C 17.765625 -13.550781 17.878906 -12.164062 17.546875 -10.78125 C 17.210938 -9.40625 16.46875 -8.132812 15.3125 -6.96875 C 14.15625 -5.8125 12.671875 -4.859375 10.859375 -4.109375 Z M 10.859375 -4.109375 "/></g></g></g><g fill="#002130" fill-opacity="1"><g transform="translate(249.425293, 329.938681)"><g><path d="M 3.171875 -34.203125 C 3.742188 -34.628906 4.316406 -34.789062 4.890625 -34.6875 C 5.460938 -34.582031 5.960938 -34.242188 6.390625 -33.671875 L 18.9375 -16.5 C 19.351562 -15.9375 19.515625 -15.351562 19.421875 -14.75 C 19.335938 -14.144531 19.023438 -13.640625 18.484375 -13.234375 C 17.921875 -12.828125 17.34375 -12.675781 16.75 -12.78125 C 16.164062 -12.894531 15.664062 -13.234375 15.25 -13.796875 L 9.96875 -21.015625 L -0.609375 -13.296875 L 4.671875 -6.078125 C 5.085938 -5.515625 5.253906 -4.929688 5.171875 -4.328125 C 5.085938 -3.722656 4.765625 -3.21875 4.203125 -2.8125 C 3.648438 -2.40625 3.070312 -2.253906 2.46875 -2.359375 C 1.875 -2.460938 1.367188 -2.796875 0.953125 -3.359375 L -11.59375 -20.53125 C -12.019531 -21.101562 -12.1875 -21.679688 -12.09375 -22.265625 C -12.007812 -22.847656 -11.679688 -23.351562 -11.109375 -23.78125 C -10.546875 -24.1875 -9.972656 -24.34375 -9.390625 -24.25 C -8.804688 -24.15625 -8.300781 -23.820312 -7.875 -23.25 L -2.84375 -16.359375 L 7.734375 -24.078125 L 2.703125 -30.96875 C 2.273438 -31.539062 2.101562 -32.117188 2.1875 -32.703125 C 2.28125 -33.296875 2.609375 -33.796875 3.171875 -34.203125 Z M 3.171875 -34.203125 "/></g></g></g><g fill="#002130" fill-opacity="1"><g transform="translate(274.250128, 310.358206)"><g><path d="M 3.640625 -3.546875 C 3.160156 -3.035156 2.613281 -2.773438 2 -2.765625 C 1.394531 -2.753906 0.835938 -2.988281 0.328125 -3.46875 L -15.15625 -18.0625 C -15.675781 -18.539062 -15.941406 -19.082031 -15.953125 -19.6875 C -15.972656 -20.289062 -15.742188 -20.847656 -15.265625 -21.359375 C -14.765625 -21.890625 -14.21875 -22.160156 -13.625 -22.171875 C -13.03125 -22.191406 -12.472656 -21.960938 -11.953125 -21.484375 L 3.53125 -6.890625 C 4.039062 -6.410156 4.3125 -5.863281 4.34375 -5.25 C 4.375 -4.644531 4.140625 -4.078125 3.640625 -3.546875 Z M 3.640625 -3.546875 "/></g></g></g><g fill="#002130" fill-opacity="1"><g transform="translate(284.23386, 300.358911)"><g><path d="M -9.609375 -32.5625 C -9.242188 -33.125 -8.773438 -33.457031 -8.203125 -33.5625 C -7.628906 -33.664062 -7.046875 -33.523438 -6.453125 -33.140625 L 11.421875 -21.578125 C 12.003906 -21.203125 12.367188 -20.722656 12.515625 -20.140625 C 12.660156 -19.554688 12.554688 -18.992188 12.203125 -18.453125 C 11.785156 -17.804688 11.226562 -17.457031 10.53125 -17.40625 L -11.125 -15.65625 L 2.0625 -7.125 C 2.644531 -6.75 3.015625 -6.28125 3.171875 -5.71875 C 3.335938 -5.15625 3.238281 -4.585938 2.875 -4.015625 C 2.5 -3.453125 2.019531 -3.125 1.4375 -3.03125 C 0.863281 -2.945312 0.285156 -3.09375 -0.296875 -3.46875 L -18.171875 -15.03125 C -18.765625 -15.414062 -19.125 -15.894531 -19.25 -16.46875 C -19.382812 -17.039062 -19.269531 -17.613281 -18.90625 -18.1875 C -18.5 -18.8125 -17.945312 -19.148438 -17.25 -19.203125 L 4.328125 -20.96875 L -8.828125 -29.46875 C -9.421875 -29.851562 -9.785156 -30.328125 -9.921875 -30.890625 C -10.066406 -31.453125 -9.960938 -32.007812 -9.609375 -32.5625 Z M -9.609375 -32.5625 "/></g></g></g><g fill="#002130" fill-opacity="1"><g transform="translate(300.975873, 273.311465)"><g><path d="M -6.109375 -25.46875 C -5.929688 -25.988281 -5.632812 -26.359375 -5.21875 -26.578125 C -4.800781 -26.796875 -4.34375 -26.820312 -3.84375 -26.65625 L 3.5625 -24.203125 C 4.613281 -23.847656 5.3125 -23.457031 5.65625 -23.03125 C 6 -22.601562 6.164062 -21.925781 6.15625 -21 C 6.1875 -19.96875 6.085938 -18.8125 5.859375 -17.53125 C 5.640625 -16.257812 5.34375 -15.0625 4.96875 -13.9375 C 4.144531 -11.4375 2.929688 -9.429688 1.328125 -7.921875 C -0.265625 -6.421875 -2.160156 -5.488281 -4.359375 -5.125 C -6.554688 -4.769531 -8.945312 -5.023438 -11.53125 -5.890625 C -14.082031 -6.734375 -16.128906 -7.953125 -17.671875 -9.546875 C -19.210938 -11.148438 -20.1875 -13.007812 -20.59375 -15.125 C -21 -17.25 -20.800781 -19.53125 -20 -21.96875 C -18.925781 -25.195312 -17.175781 -27.554688 -14.75 -29.046875 C -14.394531 -29.234375 -14.066406 -29.347656 -13.765625 -29.390625 C -13.472656 -29.429688 -13.15625 -29.394531 -12.8125 -29.28125 C -12.3125 -29.113281 -11.929688 -28.835938 -11.671875 -28.453125 C -11.421875 -28.066406 -11.363281 -27.675781 -11.5 -27.28125 C -11.582031 -27.039062 -11.695312 -26.828125 -11.84375 -26.640625 C -12 -26.460938 -12.21875 -26.265625 -12.5 -26.046875 C -13.53125 -25.265625 -14.332031 -24.484375 -14.90625 -23.703125 C -15.488281 -22.921875 -15.960938 -21.984375 -16.328125 -20.890625 C -17.160156 -18.390625 -17.046875 -16.253906 -15.984375 -14.484375 C -14.929688 -12.722656 -12.945312 -11.359375 -10.03125 -10.390625 C -4.070312 -8.410156 -0.222656 -10.039062 1.515625 -15.28125 C 2.035156 -16.832031 2.332031 -18.460938 2.40625 -20.171875 L -3.6875 -22.1875 L -4.96875 -18.296875 C -5.15625 -17.742188 -5.429688 -17.359375 -5.796875 -17.140625 C -6.171875 -16.929688 -6.613281 -16.910156 -7.125 -17.078125 C -7.632812 -17.242188 -7.972656 -17.523438 -8.140625 -17.921875 C -8.316406 -18.328125 -8.3125 -18.804688 -8.125 -19.359375 Z M -6.109375 -25.46875 "/></g></g></g><g clip-path="url(#acdce012bf)"><path fill="#f19e05" d="M 125.203125 39.519531 C 124.871094 38.941406 125.070312 38.203125 125.648438 37.871094 C 126.230469 37.539062 126.96875 37.738281 127.300781 38.316406 L 131.476562 45.550781 C 131.808594 46.125 131.609375 46.867188 131.03125 47.199219 C 130.453125 47.53125 129.710938 47.332031 129.378906 46.753906 Z M 99.980469 59.277344 L 105.886719 65.179688 C 106.359375 65.652344 107.128906 65.652344 107.601562 65.179688 C 108.078125 64.707031 108.078125 63.9375 107.601562 63.464844 L 101.699219 57.558594 C 101.222656 57.085938 100.457031 57.085938 99.980469 57.558594 C 99.507812 58.035156 99.507812 58.804688 99.980469 59.277344 Z M 80.734375 84.878906 L 87.964844 89.054688 C 88.542969 89.390625 89.285156 89.191406 89.621094 88.613281 C 89.953125 88.035156 89.757812 87.292969 89.179688 86.957031 L 81.945312 82.78125 C 81.367188 82.449219 80.625 82.644531 80.292969 83.222656 C 79.957031 83.800781 80.152344 84.542969 80.734375 84.878906 Z M 68.769531 114.597656 C 68.121094 114.421875 67.738281 113.757812 67.910156 113.113281 C 68.082031 112.464844 68.746094 112.082031 69.394531 112.253906 L 77.460938 114.414062 C 78.109375 114.589844 78.492188 115.253906 78.320312 115.898438 C 78.144531 116.546875 77.480469 116.929688 76.835938 116.757812 Z M 64.898438 146.394531 C 64.230469 146.394531 63.6875 145.851562 63.6875 145.183594 C 63.6875 144.511719 64.230469 143.96875 64.898438 143.96875 L 73.25 143.96875 C 73.921875 143.96875 74.464844 144.511719 74.464844 145.183594 C 74.464844 145.851562 73.921875 146.394531 73.25 146.394531 Z M 69.394531 178.113281 C 68.746094 178.285156 68.082031 177.902344 67.910156 177.253906 C 67.738281 176.609375 68.121094 175.941406 68.769531 175.769531 L 76.835938 173.609375 C 77.480469 173.4375 78.144531 173.820312 78.320312 174.46875 C 78.492188 175.113281 78.109375 175.777344 77.460938 175.953125 Z M 81.941406 207.582031 C 81.363281 207.914062 80.625 207.714844 80.292969 207.136719 C 79.957031 206.558594 80.160156 205.820312 80.738281 205.488281 L 87.96875 201.3125 C 88.546875 200.980469 89.285156 201.179688 89.621094 201.757812 C 89.953125 202.335938 89.753906 203.074219 89.171875 203.40625 Z M 101.695312 232.808594 L 107.601562 226.902344 C 108.074219 226.425781 108.074219 225.660156 107.601562 225.183594 C 107.128906 224.710938 106.359375 224.710938 105.886719 225.183594 L 99.980469 231.089844 C 99.507812 231.5625 99.507812 232.332031 99.980469 232.808594 C 100.453125 233.28125 101.222656 233.28125 101.695312 232.808594 Z M 127.300781 252.054688 L 131.476562 244.824219 C 131.808594 244.246094 131.613281 243.503906 131.035156 243.167969 C 130.457031 242.832031 129.714844 243.03125 129.378906 243.609375 L 125.203125 250.839844 C 124.867188 251.417969 125.066406 252.160156 125.644531 252.496094 C 126.222656 252.832031 126.964844 252.632812 127.300781 252.054688 Z M 157.015625 264.019531 C 156.84375 264.664062 156.179688 265.046875 155.53125 264.875 C 154.886719 264.703125 154.5 264.039062 154.675781 263.390625 L 156.835938 255.324219 C 157.007812 254.675781 157.671875 254.292969 158.320312 254.464844 C 158.96875 254.640625 159.351562 255.304688 159.179688 255.949219 Z M 188.816406 267.882812 C 188.816406 268.554688 188.273438 269.097656 187.605469 269.097656 C 186.933594 269.097656 186.390625 268.554688 186.390625 267.882812 L 186.390625 259.535156 C 186.390625 258.863281 186.933594 258.320312 187.605469 258.320312 C 188.273438 258.320312 188.816406 258.863281 188.816406 259.535156 Z M 220.53125 263.390625 C 220.707031 264.039062 220.320312 264.703125 219.675781 264.875 C 219.027344 265.046875 218.363281 264.664062 218.191406 264.019531 L 216.027344 255.949219 C 215.855469 255.304688 216.238281 254.640625 216.886719 254.464844 C 217.535156 254.292969 218.199219 254.675781 218.371094 255.324219 Z M 250.003906 250.839844 C 250.335938 251.417969 250.140625 252.160156 249.5625 252.492188 C 248.984375 252.828125 248.242188 252.632812 247.90625 252.054688 L 243.730469 244.820312 C 243.398438 244.242188 243.59375 243.5 244.171875 243.164062 C 244.75 242.832031 245.492188 243.03125 245.828125 243.605469 Z M 275.226562 231.089844 L 269.320312 225.183594 C 268.847656 224.710938 268.078125 224.710938 267.605469 225.183594 C 267.128906 225.65625 267.128906 226.425781 267.605469 226.898438 L 273.511719 232.804688 C 273.984375 233.277344 274.75 233.277344 275.226562 232.804688 C 275.699219 232.332031 275.699219 231.5625 275.226562 231.089844 Z M 294.476562 205.484375 L 287.242188 201.3125 C 286.664062 200.976562 285.925781 201.175781 285.585938 201.753906 C 285.253906 202.328125 285.449219 203.070312 286.027344 203.40625 L 293.261719 207.582031 C 293.839844 207.917969 294.582031 207.71875 294.917969 207.140625 C 295.25 206.5625 295.050781 205.820312 294.476562 205.484375 Z M 306.4375 175.769531 C 307.085938 175.941406 307.46875 176.605469 307.296875 177.253906 C 307.125 177.902344 306.457031 178.285156 305.8125 178.113281 L 297.746094 175.953125 C 297.101562 175.777344 296.714844 175.113281 296.886719 174.46875 C 297.0625 173.820312 297.726562 173.4375 298.375 173.609375 Z M 310.304688 143.96875 C 310.976562 143.96875 311.519531 144.511719 311.519531 145.183594 C 311.519531 145.851562 310.976562 146.394531 310.304688 146.394531 L 301.957031 146.394531 C 301.285156 146.394531 300.742188 145.851562 300.742188 145.183594 C 300.742188 144.511719 301.285156 143.96875 301.957031 143.96875 Z M 305.8125 112.253906 C 306.457031 112.082031 307.125 112.464844 307.296875 113.113281 C 307.46875 113.757812 307.085938 114.421875 306.4375 114.597656 L 298.375 116.757812 C 297.726562 116.929688 297.0625 116.546875 296.886719 115.898438 C 296.714844 115.253906 297.101562 114.589844 297.746094 114.414062 Z M 293.265625 82.785156 C 293.84375 82.449219 294.585938 82.652344 294.917969 83.230469 C 295.25 83.808594 295.046875 84.546875 294.46875 84.878906 L 287.238281 89.054688 C 286.660156 89.386719 285.921875 89.1875 285.589844 88.609375 C 285.257812 88.03125 285.457031 87.292969 286.035156 86.957031 Z M 273.511719 57.5625 L 267.605469 63.464844 C 267.132812 63.9375 267.132812 64.707031 267.605469 65.183594 C 268.078125 65.65625 268.847656 65.65625 269.320312 65.183594 L 275.226562 59.277344 C 275.699219 58.804688 275.699219 58.035156 275.226562 57.5625 C 274.753906 57.085938 273.984375 57.085938 273.511719 57.5625 Z M 247.90625 38.316406 L 243.730469 45.550781 C 243.398438 46.125 243.601562 46.867188 244.179688 47.199219 C 244.757812 47.53125 245.496094 47.332031 245.828125 46.753906 L 250.003906 39.523438 C 250.335938 38.945312 250.136719 38.203125 249.558594 37.871094 C 248.980469 37.539062 248.238281 37.738281 247.90625 38.316406 Z M 216.902344 26.007812 C 217.078125 25.363281 217.742188 24.980469 218.386719 25.152344 C 219.035156 25.324219 219.417969 25.988281 219.246094 26.636719 L 217.085938 34.703125 C 216.914062 35.347656 216.25 35.730469 215.601562 35.558594 C 214.953125 35.386719 214.570312 34.722656 214.742188 34.074219 Z M 158.609375 41.660156 C 158.4375 41.011719 158.820312 40.347656 159.46875 40.175781 C 160.113281 40.003906 160.777344 40.386719 160.953125 41.03125 L 162.992188 48.652344 C 163.167969 49.300781 162.78125 49.964844 162.136719 50.136719 C 161.488281 50.308594 160.824219 49.925781 160.652344 49.28125 Z M 132.804688 52.691406 L 136.699219 59.4375 C 137.035156 60.015625 137.777344 60.210938 138.355469 59.878906 C 138.933594 59.542969 139.128906 58.800781 138.796875 58.222656 L 134.902344 51.476562 C 134.566406 50.898438 133.824219 50.703125 133.246094 51.035156 C 132.667969 51.371094 132.46875 52.113281 132.804688 52.691406 Z M 110.730469 70.027344 C 110.257812 69.554688 110.257812 68.785156 110.730469 68.3125 C 111.203125 67.835938 111.972656 67.835938 112.445312 68.3125 L 117.847656 73.714844 C 118.324219 74.1875 118.324219 74.957031 117.847656 75.429688 C 117.375 75.902344 116.605469 75.902344 116.132812 75.429688 Z M 93.902344 92.480469 L 100.316406 96.183594 C 100.894531 96.515625 101.632812 96.316406 101.964844 95.738281 C 102.296875 95.160156 102.097656 94.421875 101.519531 94.089844 L 95.109375 90.386719 C 94.527344 90.054688 93.789062 90.253906 93.457031 90.832031 C 93.125 91.410156 93.324219 92.148438 93.902344 92.480469 Z M 83.453125 118.53125 C 82.804688 118.359375 82.421875 117.695312 82.59375 117.046875 C 82.769531 116.402344 83.433594 116.015625 84.078125 116.1875 L 90.972656 118.035156 C 91.617188 118.210938 92.003906 118.875 91.832031 119.519531 C 91.65625 120.167969 90.992188 120.550781 90.347656 120.378906 Z M 80.101562 146.398438 C 79.433594 146.398438 78.890625 145.855469 78.890625 145.183594 C 78.890625 144.511719 79.433594 143.96875 80.101562 143.96875 L 86.992188 143.96875 C 87.660156 143.96875 88.203125 144.511719 88.203125 145.183594 C 88.203125 145.855469 87.660156 146.398438 86.992188 146.398438 Z M 84.078125 174.179688 C 83.433594 174.351562 82.769531 173.96875 82.59375 173.320312 C 82.421875 172.671875 82.804688 172.007812 83.453125 171.835938 L 89.808594 170.132812 C 90.457031 169.960938 91.121094 170.34375 91.292969 170.992188 C 91.464844 171.636719 91.082031 172.300781 90.433594 172.476562 Z M 95.113281 199.980469 L 100.597656 196.816406 C 101.175781 196.480469 101.371094 195.738281 101.039062 195.160156 C 100.703125 194.582031 99.960938 194.386719 99.382812 194.722656 L 93.898438 197.886719 C 93.320312 198.222656 93.121094 198.960938 93.457031 199.539062 C 93.792969 200.121094 94.535156 200.316406 95.113281 199.980469 Z M 112.449219 222.054688 C 111.972656 222.53125 111.207031 222.53125 110.730469 222.054688 C 110.257812 221.582031 110.257812 220.8125 110.730469 220.339844 L 115.0625 216.007812 C 115.539062 215.535156 116.304688 215.535156 116.78125 216.007812 C 117.253906 216.480469 117.253906 217.25 116.78125 217.722656 Z M 134.902344 238.886719 L 137.871094 233.742188 C 138.207031 233.167969 138.007812 232.425781 137.429688 232.089844 C 136.851562 231.753906 136.113281 231.953125 135.777344 232.53125 L 132.804688 237.675781 C 132.472656 238.253906 132.667969 238.996094 133.246094 239.328125 C 133.824219 239.664062 134.566406 239.46875 134.902344 238.886719 Z M 160.953125 249.332031 C 160.78125 249.980469 160.113281 250.363281 159.46875 250.191406 C 158.820312 250.015625 158.4375 249.351562 158.609375 248.707031 L 160.117188 243.082031 C 160.289062 242.4375 160.953125 242.050781 161.601562 242.222656 C 162.246094 242.398438 162.632812 243.0625 162.460938 243.707031 Z M 188.816406 252.683594 C 188.816406 253.351562 188.273438 253.898438 187.605469 253.898438 C 186.933594 253.898438 186.390625 253.351562 186.390625 252.683594 L 186.390625 246.878906 C 186.390625 246.207031 186.933594 245.664062 187.605469 245.664062 C 188.273438 245.664062 188.816406 246.207031 188.816406 246.878906 Z M 216.597656 248.707031 C 216.769531 249.351562 216.386719 250.015625 215.742188 250.191406 C 215.09375 250.363281 214.429688 249.980469 214.253906 249.332031 L 212.75 243.707031 C 212.578125 243.0625 212.960938 242.398438 213.605469 242.222656 C 214.253906 242.050781 214.917969 242.4375 215.089844 243.082031 Z M 242.402344 237.671875 L 239.433594 232.53125 C 239.097656 231.953125 238.355469 231.753906 237.777344 232.089844 C 237.199219 232.425781 237.003906 233.167969 237.335938 233.742188 L 240.308594 238.886719 C 240.640625 239.464844 241.382812 239.664062 241.960938 239.328125 C 242.539062 238.992188 242.738281 238.25 242.402344 237.671875 Z M 264.476562 220.339844 C 264.949219 220.8125 264.949219 221.582031 264.476562 222.054688 C 264.003906 222.527344 263.234375 222.527344 262.757812 222.054688 L 258.429688 217.722656 C 257.957031 217.25 257.957031 216.480469 258.429688 216.007812 C 258.902344 215.535156 259.671875 215.535156 260.144531 216.007812 Z M 281.304688 197.882812 L 275.820312 194.71875 C 275.242188 194.386719 274.503906 194.585938 274.171875 195.164062 C 273.839844 195.742188 274.039062 196.480469 274.617188 196.8125 L 280.101562 199.980469 C 280.679688 200.3125 281.417969 200.113281 281.75 199.535156 C 282.082031 198.953125 281.882812 198.214844 281.304688 197.882812 Z M 291.753906 171.835938 C 292.398438 172.007812 292.785156 172.671875 292.613281 173.316406 C 292.441406 173.964844 291.777344 174.347656 291.128906 174.175781 L 284.773438 172.476562 C 284.125 172.300781 283.742188 171.636719 283.914062 170.992188 C 284.089844 170.34375 284.753906 169.960938 285.398438 170.132812 Z M 295.105469 143.96875 C 295.773438 143.96875 296.316406 144.511719 296.316406 145.183594 C 296.316406 145.851562 295.773438 146.394531 295.105469 146.394531 L 288.21875 146.394531 C 287.546875 146.394531 287.003906 145.851562 287.003906 145.183594 C 287.003906 144.511719 287.546875 143.96875 288.21875 143.96875 Z M 291.128906 116.1875 C 291.777344 116.015625 292.441406 116.398438 292.613281 117.046875 C 292.785156 117.695312 292.398438 118.359375 291.753906 118.53125 L 284.863281 120.378906 C 284.214844 120.550781 283.550781 120.167969 283.378906 119.519531 C 283.203125 118.871094 283.589844 118.207031 284.234375 118.035156 Z M 280.09375 90.386719 L 273.683594 94.089844 C 273.105469 94.421875 272.90625 95.164062 273.242188 95.742188 C 273.578125 96.320312 274.320312 96.519531 274.898438 96.183594 L 281.308594 92.480469 C 281.886719 92.148438 282.082031 91.40625 281.75 90.824219 C 281.414062 90.246094 280.671875 90.050781 280.09375 90.386719 Z M 262.757812 68.308594 L 257.359375 73.714844 C 256.882812 74.1875 256.882812 74.957031 257.359375 75.429688 C 257.832031 75.902344 258.601562 75.902344 259.074219 75.429688 L 264.476562 70.027344 C 264.949219 69.554688 264.949219 68.785156 264.476562 68.308594 C 264.003906 67.835938 263.234375 67.835938 262.757812 68.308594 Z M 240.308594 51.484375 L 236.414062 58.226562 C 236.082031 58.804688 236.28125 59.542969 236.859375 59.875 C 237.4375 60.210938 238.175781 60.007812 238.507812 59.429688 L 242.402344 52.6875 C 242.734375 52.109375 242.535156 51.371094 241.957031 51.035156 C 241.378906 50.703125 240.636719 50.902344 240.308594 51.484375 Z M 212.96875 40.691406 C 213.144531 40.046875 213.808594 39.664062 214.453125 39.835938 C 215.101562 40.007812 215.484375 40.671875 215.3125 41.320312 L 213.269531 48.949219 C 213.09375 49.59375 212.429688 49.976562 211.785156 49.804688 C 211.136719 49.632812 210.753906 48.96875 210.925781 48.320312 Z M 186.390625 22.480469 C 186.390625 21.808594 186.933594 21.265625 187.605469 21.265625 C 188.273438 21.265625 188.820312 21.808594 188.820312 22.480469 L 188.820312 30.832031 C 188.820312 31.5 188.273438 32.042969 187.605469 32.042969 C 186.933594 32.042969 186.390625 31.5 186.390625 30.832031 Z M 186.390625 37.683594 C 186.390625 37.011719 186.933594 36.46875 187.605469 36.46875 C 188.273438 36.46875 188.820312 37.011719 188.820312 37.683594 L 188.820312 45.625 C 188.820312 46.296875 188.273438 46.839844 187.605469 46.839844 C 186.933594 46.839844 186.390625 46.296875 186.390625 45.625 Z M 169.5625 291.410156 C 169.476562 292.074219 168.871094 292.542969 168.207031 292.457031 C 167.546875 292.371094 167.078125 291.761719 167.164062 291.097656 L 173.167969 245.855469 C 173.253906 245.195312 173.859375 244.726562 174.523438 244.8125 C 175.183594 244.898438 175.652344 245.503906 175.566406 246.167969 Z M 205.644531 1.09375 C 205.730469 0.433594 206.339844 -0.0351562 207 0.0507812 C 207.664062 0.136719 208.128906 0.746094 208.042969 1.40625 L 202.039062 46.652344 C 201.953125 47.3125 201.347656 47.78125 200.683594 47.695312 C 200.023438 47.605469 199.554688 47 199.640625 46.335938 Z M 207.746094 291.140625 C 207.832031 291.800781 207.367188 292.410156 206.707031 292.496094 C 206.042969 292.582031 205.4375 292.113281 205.351562 291.453125 L 199.4375 246.195312 C 199.351562 245.535156 199.820312 244.925781 200.480469 244.839844 C 201.144531 244.753906 201.75 245.222656 201.835938 245.882812 Z M 167.460938 1.367188 C 167.375 0.703125 167.839844 0.09375 168.503906 0.0078125 C 169.164062 -0.0742188 169.773438 0.390625 169.859375 1.054688 L 175.769531 46.308594 C 175.855469 46.972656 175.390625 47.578125 174.726562 47.664062 C 174.0625 47.75 173.457031 47.285156 173.371094 46.621094 Z M 244.570312 281.003906 C 244.824219 281.625 244.527344 282.332031 243.910156 282.585938 C 243.289062 282.839844 242.585938 282.542969 242.332031 281.925781 L 224.90625 239.738281 C 224.652344 239.117188 224.949219 238.410156 225.566406 238.15625 C 226.183594 237.902344 226.890625 238.199219 227.140625 238.816406 Z M 130.640625 11.5 C 130.386719 10.882812 130.679688 10.175781 131.296875 9.921875 C 131.914062 9.667969 132.625 9.960938 132.875 10.578125 L 150.300781 52.769531 C 150.554688 53.386719 150.261719 54.09375 149.644531 54.347656 C 149.023438 54.601562 148.316406 54.304688 148.0625 53.6875 Z M 277.488281 261.644531 L 249.742188 225.410156 C 249.335938 224.878906 248.574219 224.777344 248.042969 225.183594 C 247.511719 225.589844 247.410156 226.347656 247.816406 226.882812 L 275.5625 263.113281 C 275.964844 263.648438 276.726562 263.746094 277.257812 263.34375 C 277.789062 262.9375 277.890625 262.175781 277.488281 261.644531 Z M 97.722656 30.863281 L 125.464844 67.09375 C 125.871094 67.625 126.632812 67.730469 127.164062 67.324219 C 127.695312 66.914062 127.796875 66.15625 127.390625 65.625 L 99.648438 29.390625 C 99.242188 28.859375 98.480469 28.757812 97.949219 29.164062 C 97.417969 29.570312 97.316406 30.328125 97.722656 30.863281 Z M 304.289062 234.453125 C 304.820312 234.859375 304.914062 235.617188 304.507812 236.148438 C 304.097656 236.675781 303.339844 236.773438 302.808594 236.367188 L 266.632812 208.546875 C 266.101562 208.140625 266.007812 207.378906 266.414062 206.851562 C 266.820312 206.324219 267.582031 206.226562 268.113281 206.632812 Z M 70.917969 58.054688 C 70.390625 57.648438 70.292969 56.886719 70.699219 56.355469 C 71.109375 55.828125 71.871094 55.730469 72.398438 56.140625 L 108.574219 83.957031 C 109.105469 84.367188 109.203125 85.125 108.792969 85.65625 C 108.386719 86.183594 107.625 86.28125 107.097656 85.871094 Z M 323.167969 201.253906 C 323.785156 201.511719 324.078125 202.222656 323.824219 202.839844 C 323.566406 203.457031 322.859375 203.75 322.238281 203.496094 L 280.085938 185.984375 C 279.46875 185.726562 279.175781 185.015625 279.433594 184.398438 C 279.6875 183.78125 280.398438 183.488281 281.015625 183.746094 Z M 52.039062 91.25 C 51.421875 90.992188 51.128906 90.285156 51.382812 89.667969 C 51.640625 89.050781 52.351562 88.753906 52.96875 89.011719 L 95.121094 106.523438 C 95.738281 106.78125 96.035156 107.488281 95.777344 108.105469 C 95.519531 108.726562 94.8125 109.019531 94.191406 108.761719 Z M 332.761719 164.292969 C 333.425781 164.378906 333.890625 164.988281 333.804688 165.648438 C 333.71875 166.3125 333.113281 166.78125 332.453125 166.691406 L 287.207031 160.691406 C 286.546875 160.601562 286.078125 159.996094 286.164062 159.335938 C 286.25 158.671875 286.855469 158.203125 287.519531 158.289062 Z M 42.445312 128.210938 C 41.78125 128.125 41.316406 127.519531 41.402344 126.855469 C 41.488281 126.195312 42.09375 125.726562 42.757812 125.8125 L 88 131.816406 C 88.664062 131.902344 89.128906 132.511719 89.042969 133.171875 C 88.957031 133.835938 88.351562 134.300781 87.6875 134.214844 Z M 332.492188 126.109375 C 333.152344 126.023438 333.761719 126.488281 333.847656 127.152344 C 333.933594 127.8125 333.464844 128.421875 332.804688 128.507812 L 287.546875 134.417969 C 286.886719 134.503906 286.28125 134.039062 286.195312 133.375 C 286.105469 132.714844 286.570312 132.105469 287.234375 132.019531 Z M 42.714844 166.398438 C 42.054688 166.484375 41.445312 166.015625 41.359375 165.355469 C 41.273438 164.691406 41.742188 164.085938 42.402344 164 L 87.660156 158.085938 C 88.324219 158 88.929688 158.46875 89.015625 159.128906 C 89.101562 159.792969 88.636719 160.402344 87.972656 160.488281 Z M 322.355469 89.289062 C 322.976562 89.035156 323.683594 89.328125 323.9375 89.949219 C 324.191406 90.566406 323.894531 91.273438 323.277344 91.523438 L 281.089844 108.953125 C 280.46875 109.203125 279.761719 108.910156 279.507812 108.292969 C 279.253906 107.675781 279.550781 106.96875 280.167969 106.714844 Z M 52.851562 203.21875 C 52.234375 203.472656 51.527344 203.175781 51.273438 202.558594 C 51.019531 201.941406 51.3125 201.234375 51.929688 200.980469 L 94.121094 183.554688 C 94.738281 183.300781 95.445312 183.597656 95.699219 184.214844 C 95.953125 184.832031 95.65625 185.539062 95.039062 185.792969 Z M 302.996094 56.371094 L 266.761719 84.117188 C 266.230469 84.519531 266.128906 85.28125 266.535156 85.8125 C 266.941406 86.34375 267.699219 86.445312 268.230469 86.042969 L 304.464844 58.296875 C 304.996094 57.890625 305.097656 57.128906 304.691406 56.597656 C 304.289062 56.066406 303.527344 55.964844 302.996094 56.371094 Z M 72.214844 236.136719 L 108.445312 208.390625 C 108.976562 207.984375 109.078125 207.222656 108.675781 206.691406 C 108.269531 206.160156 107.507812 206.058594 106.976562 206.464844 L 70.742188 234.210938 C 70.210938 234.613281 70.109375 235.375 70.515625 235.90625 C 70.921875 236.4375 71.679688 236.539062 72.214844 236.136719 Z M 275.804688 29.566406 C 276.210938 29.039062 276.972656 28.941406 277.5 29.351562 C 278.027344 29.757812 278.125 30.519531 277.71875 31.046875 L 249.898438 67.226562 C 249.492188 67.753906 248.730469 67.851562 248.203125 67.445312 C 247.671875 67.035156 247.574219 66.273438 247.984375 65.746094 Z M 99.40625 262.9375 C 98.996094 263.46875 98.238281 263.566406 97.707031 263.15625 C 97.179688 262.746094 97.082031 261.988281 97.492188 261.457031 L 125.308594 225.28125 C 125.71875 224.753906 126.476562 224.65625 127.007812 225.0625 C 127.535156 225.472656 127.632812 226.230469 127.222656 226.761719 Z M 242.605469 10.6875 C 242.863281 10.070312 243.574219 9.777344 244.191406 10.03125 C 244.808594 10.289062 245.101562 11 244.84375 11.617188 L 227.335938 53.769531 C 227.078125 54.386719 226.367188 54.683594 225.75 54.425781 C 225.128906 54.167969 224.839844 53.460938 225.09375 52.839844 Z M 132.601562 281.816406 C 132.34375 282.4375 131.636719 282.726562 131.019531 282.472656 C 130.398438 282.214844 130.105469 281.507812 130.363281 280.886719 L 147.875 238.734375 C 148.132812 238.117188 148.839844 237.824219 149.457031 238.078125 C 150.074219 238.335938 150.367188 239.046875 150.113281 239.664062 Z M 154.675781 26.972656 C 154.503906 26.328125 154.886719 25.664062 155.53125 25.488281 C 156.179688 25.316406 156.84375 25.699219 157.015625 26.347656 L 159.179688 34.414062 C 159.351562 35.058594 158.96875 35.726562 158.320312 35.898438 C 157.675781 36.070312 157.007812 35.6875 156.835938 35.039062 L 154.675781 26.972656 " fill-opacity="1" fill-rule="evenodd"/><path fill="#74546f" d="M 125.203125 39.519531 C 124.871094 38.941406 125.070312 38.203125 125.648438 37.871094 C 126.230469 37.539062 126.96875 37.738281 127.300781 38.316406 L 131.476562 45.550781 C 131.808594 46.125 131.609375 46.867188 131.03125 47.199219 C 130.453125 47.53125 129.710938 47.332031 129.378906 46.753906 Z M 99.980469 59.277344 L 105.886719 65.179688 C 106.359375 65.652344 107.128906 65.652344 107.601562 65.179688 C 108.078125 64.707031 108.078125 63.9375 107.601562 63.464844 L 101.699219 57.558594 C 101.222656 57.085938 100.457031 57.085938 99.980469 57.558594 C 99.507812 58.035156 99.507812 58.804688 99.980469 59.277344 Z M 80.734375 84.878906 L 87.964844 89.054688 C 88.542969 89.390625 89.285156 89.191406 89.621094 88.613281 C 89.953125 88.035156 89.757812 87.292969 89.179688 86.957031 L 81.945312 82.78125 C 81.367188 82.449219 80.625 82.644531 80.292969 83.222656 C 79.957031 83.800781 80.152344 84.542969 80.734375 84.878906 Z M 68.769531 114.597656 C 68.121094 114.421875 67.738281 113.757812 67.910156 113.113281 C 68.082031 112.464844 68.746094 112.082031 69.394531 112.253906 L 77.460938 114.414062 C 78.109375 114.589844 78.492188 115.253906 78.320312 115.898438 C 78.144531 116.546875 77.480469 116.929688 76.835938 116.757812 Z M 64.898438 146.394531 C 64.230469 146.394531 63.6875 145.851562 63.6875 145.183594 C 63.6875 144.511719 64.230469 143.96875 64.898438 143.96875 L 73.25 143.96875 C 73.921875 143.96875 74.464844 144.511719 74.464844 145.183594 C 74.464844 145.851562 73.921875 146.394531 73.25 146.394531 Z M 69.394531 178.113281 C 68.746094 178.285156 68.082031 177.902344 67.910156 177.253906 C 67.738281 176.609375 68.121094 175.941406 68.769531 175.769531 L 76.835938 173.609375 C 77.480469 173.4375 78.144531 173.820312 78.320312 174.46875 C 78.492188 175.113281 78.109375 175.777344 77.460938 175.953125 Z M 81.941406 207.582031 C 81.363281 207.914062 80.625 207.714844 80.292969 207.136719 C 79.957031 206.558594 80.160156 205.820312 80.738281 205.488281 L 87.96875 201.3125 C 88.546875 200.980469 89.285156 201.179688 89.621094 201.757812 C 89.953125 202.335938 89.753906 203.074219 89.171875 203.40625 Z M 101.695312 232.808594 L 107.601562 226.902344 C 108.074219 226.425781 108.074219 225.660156 107.601562 225.183594 C 107.128906 224.710938 106.359375 224.710938 105.886719 225.183594 L 99.980469 231.089844 C 99.507812 231.5625 99.507812 232.332031 99.980469 232.808594 C 100.453125 233.28125 101.222656 233.28125 101.695312 232.808594 Z M 127.300781 252.054688 L 131.476562 244.824219 C 131.808594 244.246094 131.613281 243.503906 131.035156 243.167969 C 130.457031 242.832031 129.714844 243.03125 129.378906 243.609375 L 125.203125 250.839844 C 124.867188 251.417969 125.066406 252.160156 125.644531 252.496094 C 126.222656 252.832031 126.964844 252.632812 127.300781 252.054688 Z M 157.015625 264.019531 C 156.84375 264.664062 156.179688 265.046875 155.53125 264.875 C 154.886719 264.703125 154.5 264.039062 154.675781 263.390625 L 156.835938 255.324219 C 157.007812 254.675781 157.671875 254.292969 158.320312 254.464844 C 158.96875 254.640625 159.351562 255.304688 159.179688 255.949219 Z M 188.816406 267.882812 C 188.816406 268.554688 188.273438 269.097656 187.605469 269.097656 C 186.933594 269.097656 186.390625 268.554688 186.390625 267.882812 L 186.390625 259.535156 C 186.390625 258.863281 186.933594 258.320312 187.605469 258.320312 C 188.273438 258.320312 188.816406 258.863281 188.816406 259.535156 Z M 220.53125 263.390625 C 220.707031 264.039062 220.320312 264.703125 219.675781 264.875 C 219.027344 265.046875 218.363281 264.664062 218.191406 264.019531 L 216.027344 255.949219 C 215.855469 255.304688 216.238281 254.640625 216.886719 254.464844 C 217.535156 254.292969 218.199219 254.675781 218.371094 255.324219 Z M 250.003906 250.839844 C 250.335938 251.417969 250.140625 252.160156 249.5625 252.492188 C 248.984375 252.828125 248.242188 252.632812 247.90625 252.054688 L 243.730469 244.820312 C 243.398438 244.242188 243.59375 243.5 244.171875 243.164062 C 244.75 242.832031 245.492188 243.03125 245.828125 243.605469 Z M 275.226562 231.089844 L 269.320312 225.183594 C 268.847656 224.710938 268.078125 224.710938 267.605469 225.183594 C 267.128906 225.65625 267.128906 226.425781 267.605469 226.898438 L 273.511719 232.804688 C 273.984375 233.277344 274.75 233.277344 275.226562 232.804688 C 275.699219 232.332031 275.699219 231.5625 275.226562 231.089844 Z M 294.476562 205.484375 L 287.242188 201.3125 C 286.664062 200.976562 285.925781 201.175781 285.585938 201.753906 C 285.253906 202.328125 285.449219 203.070312 286.027344 203.40625 L 293.261719 207.582031 C 293.839844 207.917969 294.582031 207.71875 294.917969 207.140625 C 295.25 206.5625 295.050781 205.820312 294.476562 205.484375 Z M 306.4375 175.769531 C 307.085938 175.941406 307.46875 176.605469 307.296875 177.253906 C 307.125 177.902344 306.457031 178.285156 305.8125 178.113281 L 297.746094 175.953125 C 297.101562 175.777344 296.714844 175.113281 296.886719 174.46875 C 297.0625 173.820312 297.726562 173.4375 298.375 173.609375 Z M 310.304688 143.96875 C 310.976562 143.96875 311.519531 144.511719 311.519531 145.183594 C 311.519531 145.851562 310.976562 146.394531 310.304688 146.394531 L 301.957031 146.394531 C 301.285156 146.394531 300.742188 145.851562 300.742188 145.183594 C 300.742188 144.511719 301.285156 143.96875 301.957031 143.96875 Z M 305.8125 112.253906 C 306.457031 112.082031 307.125 112.464844 307.296875 113.113281 C 307.46875 113.757812 307.085938 114.421875 306.4375 114.597656 L 298.375 116.757812 C 297.726562 116.929688 297.0625 116.546875 296.886719 115.898438 C 296.714844 115.253906 297.101562 114.589844 297.746094 114.414062 Z M 293.265625 82.785156 C 293.84375 82.449219 294.585938 82.652344 294.917969 83.230469 C 295.25 83.808594 295.046875 84.546875 294.46875 84.878906 L 287.238281 89.054688 C 286.660156 89.386719 285.921875 89.1875 285.589844 88.609375 C 285.257812 88.03125 285.457031 87.292969 286.035156 86.957031 Z M 273.511719 57.5625 L 267.605469 63.464844 C 267.132812 63.9375 267.132812 64.707031 267.605469 65.183594 C 268.078125 65.65625 268.847656 65.65625 269.320312 65.183594 L 275.226562 59.277344 C 275.699219 58.804688 275.699219 58.035156 275.226562 57.5625 C 274.753906 57.085938 273.984375 57.085938 273.511719 57.5625 Z M 247.90625 38.316406 L 243.730469 45.550781 C 243.398438 46.125 243.601562 46.867188 244.179688 47.199219 C 244.757812 47.53125 245.496094 47.332031 245.828125 46.753906 L 250.003906 39.523438 C 250.335938 38.945312 250.136719 38.203125 249.558594 37.871094 C 248.980469 37.539062 248.238281 37.738281 247.90625 38.316406 Z M 216.902344 26.007812 C 217.078125 25.363281 217.742188 24.980469 218.386719 25.152344 C 219.035156 25.324219 219.417969 25.988281 219.246094 26.636719 L 217.085938 34.703125 C 216.914062 35.347656 216.25 35.730469 215.601562 35.558594 C 214.953125 35.386719 214.570312 34.722656 214.742188 34.074219 Z M 158.609375 41.660156 C 158.4375 41.011719 158.820312 40.347656 159.46875 40.175781 C 160.113281 40.003906 160.777344 40.386719 160.953125 41.03125 L 162.992188 48.652344 C 163.167969 49.300781 162.78125 49.964844 162.136719 50.136719 C 161.488281 50.308594 160.824219 49.925781 160.652344 49.28125 Z M 132.804688 52.691406 L 136.699219 59.4375 C 137.035156 60.015625 137.777344 60.210938 138.355469 59.878906 C 138.933594 59.542969 139.128906 58.800781 138.796875 58.222656 L 134.902344 51.476562 C 134.566406 50.898438 133.824219 50.703125 133.246094 51.035156 C 132.667969 51.371094 132.46875 52.113281 132.804688 52.691406 Z M 110.730469 70.027344 C 110.257812 69.554688 110.257812 68.785156 110.730469 68.3125 C 111.203125 67.835938 111.972656 67.835938 112.445312 68.3125 L 117.847656 73.714844 C 118.324219 74.1875 118.324219 74.957031 117.847656 75.429688 C 117.375 75.902344 116.605469 75.902344 116.132812 75.429688 Z M 93.902344 92.480469 L 100.316406 96.183594 C 100.894531 96.515625 101.632812 96.316406 101.964844 95.738281 C 102.296875 95.160156 102.097656 94.421875 101.519531 94.089844 L 95.109375 90.386719 C 94.527344 90.054688 93.789062 90.253906 93.457031 90.832031 C 93.125 91.410156 93.324219 92.148438 93.902344 92.480469 Z M 83.453125 118.53125 C 82.804688 118.359375 82.421875 117.695312 82.59375 117.046875 C 82.769531 116.402344 83.433594 116.015625 84.078125 116.1875 L 90.972656 118.035156 C 91.617188 118.210938 92.003906 118.875 91.832031 119.519531 C 91.65625 120.167969 90.992188 120.550781 90.347656 120.378906 Z M 80.101562 146.398438 C 79.433594 146.398438 78.890625 145.855469 78.890625 145.183594 C 78.890625 144.511719 79.433594 143.96875 80.101562 143.96875 L 86.992188 143.96875 C 87.660156 143.96875 88.203125 144.511719 88.203125 145.183594 C 88.203125 145.855469 87.660156 146.398438 86.992188 146.398438 Z M 84.078125 174.179688 C 83.433594 174.351562 82.769531 173.96875 82.59375 173.320312 C 82.421875 172.671875 82.804688 172.007812 83.453125 171.835938 L 89.808594 170.132812 C 90.457031 169.960938 91.121094 170.34375 91.292969 170.992188 C 91.464844 171.636719 91.082031 172.300781 90.433594 172.476562 Z M 95.113281 199.980469 L 100.597656 196.816406 C 101.175781 196.480469 101.371094 195.738281 101.039062 195.160156 C 100.703125 194.582031 99.960938 194.386719 99.382812 194.722656 L 93.898438 197.886719 C 93.320312 198.222656 93.121094 198.960938 93.457031 199.539062 C 93.792969 200.121094 94.535156 200.316406 95.113281 199.980469 Z M 112.449219 222.054688 C 111.972656 222.53125 111.207031 222.53125 110.730469 222.054688 C 110.257812 221.582031 110.257812 220.8125 110.730469 220.339844 L 115.0625 216.007812 C 115.539062 215.535156 116.304688 215.535156 116.78125 216.007812 C 117.253906 216.480469 117.253906 217.25 116.78125 217.722656 Z M 134.902344 238.886719 L 137.871094 233.742188 C 138.207031 233.167969 138.007812 232.425781 137.429688 232.089844 C 136.851562 231.753906 136.113281 231.953125 135.777344 232.53125 L 132.804688 237.675781 C 132.472656 238.253906 132.667969 238.996094 133.246094 239.328125 C 133.824219 239.664062 134.566406 239.46875 134.902344 238.886719 Z M 160.953125 249.332031 C 160.78125 249.980469 160.113281 250.363281 159.46875 250.191406 C 158.820312 250.015625 158.4375 249.351562 158.609375 248.707031 L 160.117188 243.082031 C 160.289062 242.4375 160.953125 242.050781 161.601562 242.222656 C 162.246094 242.398438 162.632812 243.0625 162.460938 243.707031 Z M 188.816406 252.683594 C 188.816406 253.351562 188.273438 253.898438 187.605469 253.898438 C 186.933594 253.898438 186.390625 253.351562 186.390625 252.683594 L 186.390625 246.878906 C 186.390625 246.207031 186.933594 245.664062 187.605469 245.664062 C 188.273438 245.664062 188.816406 246.207031 188.816406 246.878906 Z M 216.597656 248.707031 C 216.769531 249.351562 216.386719 250.015625 215.742188 250.191406 C 215.09375 250.363281 214.429688 249.980469 214.253906 249.332031 L 212.75 243.707031 C 212.578125 243.0625 212.960938 242.398438 213.605469 242.222656 C 214.253906 242.050781 214.917969 242.4375 215.089844 243.082031 Z M 242.402344 237.671875 L 239.433594 232.53125 C 239.097656 231.953125 238.355469 231.753906 237.777344 232.089844 C 237.199219 232.425781 237.003906 233.167969 237.335938 233.742188 L 240.308594 238.886719 C 240.640625 239.464844 241.382812 239.664062 241.960938 239.328125 C 242.539062 238.992188 242.738281 238.25 242.402344 237.671875 Z M 264.476562 220.339844 C 264.949219 220.8125 264.949219 221.582031 264.476562 222.054688 C 264.003906 222.527344 263.234375 222.527344 262.757812 222.054688 L 258.429688 217.722656 C 257.957031 217.25 257.957031 216.480469 258.429688 216.007812 C 258.902344 215.535156 259.671875 215.535156 260.144531 216.007812 Z M 281.304688 197.882812 L 275.820312 194.71875 C 275.242188 194.386719 274.503906 194.585938 274.171875 195.164062 C 273.839844 195.742188 274.039062 196.480469 274.617188 196.8125 L 280.101562 199.980469 C 280.679688 200.3125 281.417969 200.113281 281.75 199.535156 C 282.082031 198.953125 281.882812 198.214844 281.304688 197.882812 Z M 291.753906 171.835938 C 292.398438 172.007812 292.785156 172.671875 292.613281 173.316406 C 292.441406 173.964844 291.777344 174.347656 291.128906 174.175781 L 284.773438 172.476562 C 284.125 172.300781 283.742188 171.636719 283.914062 170.992188 C 284.089844 170.34375 284.753906 169.960938 285.398438 170.132812 Z M 295.105469 143.96875 C 295.773438 143.96875 296.316406 144.511719 296.316406 145.183594 C 296.316406 145.851562 295.773438 146.394531 295.105469 146.394531 L 288.21875 146.394531 C 287.546875 146.394531 287.003906 145.851562 287.003906 145.183594 C 287.003906 144.511719 287.546875 143.96875 288.21875 143.96875 Z M 291.128906 116.1875 C 291.777344 116.015625 292.441406 116.398438 292.613281 117.046875 C 292.785156 117.695312 292.398438 118.359375 291.753906 118.53125 L 284.863281 120.378906 C 284.214844 120.550781 283.550781 120.167969 283.378906 119.519531 C 283.203125 118.871094 283.589844 118.207031 284.234375 118.035156 Z M 280.09375 90.386719 L 273.683594 94.089844 C 273.105469 94.421875 272.90625 95.164062 273.242188 95.742188 C 273.578125 96.320312 274.320312 96.519531 274.898438 96.183594 L 281.308594 92.480469 C 281.886719 92.148438 282.082031 91.40625 281.75 90.824219 C 281.414062 90.246094 280.671875 90.050781 280.09375 90.386719 Z M 262.757812 68.308594 L 257.359375 73.714844 C 256.882812 74.1875 256.882812 74.957031 257.359375 75.429688 C 257.832031 75.902344 258.601562 75.902344 259.074219 75.429688 L 264.476562 70.027344 C 264.949219 69.554688 264.949219 68.785156 264.476562 68.308594 C 264.003906 67.835938 263.234375 67.835938 262.757812 68.308594 Z M 240.308594 51.484375 L 236.414062 58.226562 C 236.082031 58.804688 236.28125 59.542969 236.859375 59.875 C 237.4375 60.210938 238.175781 60.007812 238.507812 59.429688 L 242.402344 52.6875 C 242.734375 52.109375 242.535156 51.371094 241.957031 51.035156 C 241.378906 50.703125 240.636719 50.902344 240.308594 51.484375 Z M 212.96875 40.691406 C 213.144531 40.046875 213.808594 39.664062 214.453125 39.835938 C 215.101562 40.007812 215.484375 40.671875 215.3125 41.320312 L 213.269531 48.949219 C 213.09375 49.59375 212.429688 49.976562 211.785156 49.804688 C 211.136719 49.632812 210.753906 48.96875 210.925781 48.320312 Z M 186.390625 22.480469 C 186.390625 21.808594 186.933594 21.265625 187.605469 21.265625 C 188.273438 21.265625 188.820312 21.808594 188.820312 22.480469 L 188.820312 30.832031 C 188.820312 31.5 188.273438 32.042969 187.605469 32.042969 C 186.933594 32.042969 186.390625 31.5 186.390625 30.832031 Z M 186.390625 37.683594 C 186.390625 37.011719 186.933594 36.46875 187.605469 36.46875 C 188.273438 36.46875 188.820312 37.011719 188.820312 37.683594 L 188.820312 45.625 C 188.820312 46.296875 188.273438 46.839844 187.605469 46.839844 C 186.933594 46.839844 186.390625 46.296875 186.390625 45.625 Z M 169.5625 291.410156 C 169.476562 292.074219 168.871094 292.542969 168.207031 292.457031 C 167.546875 292.371094 167.078125 291.761719 167.164062 291.097656 L 173.167969 245.855469 C 173.253906 245.195312 173.859375 244.726562 174.523438 244.8125 C 175.183594 244.898438 175.652344 245.503906 175.566406 246.167969 Z M 205.644531 1.09375 C 205.730469 0.433594 206.339844 -0.0351562 207 0.0507812 C 207.664062 0.136719 208.128906 0.746094 208.042969 1.40625 L 202.039062 46.652344 C 201.953125 47.3125 201.347656 47.78125 200.683594 47.695312 C 200.023438 47.605469 199.554688 47 199.640625 46.335938 Z M 207.746094 291.140625 C 207.832031 291.800781 207.367188 292.410156 206.707031 292.496094 C 206.042969 292.582031 205.4375 292.113281 205.351562 291.453125 L 199.4375 246.195312 C 199.351562 245.535156 199.820312 244.925781 200.480469 244.839844 C 201.144531 244.753906 201.75 245.222656 201.835938 245.882812 Z M 167.460938 1.367188 C 167.375 0.703125 167.839844 0.09375 168.503906 0.0078125 C 169.164062 -0.0742188 169.773438 0.390625 169.859375 1.054688 L 175.769531 46.308594 C 175.855469 46.972656 175.390625 47.578125 174.726562 47.664062 C 174.0625 47.75 173.457031 47.285156 173.371094 46.621094 Z M 244.570312 281.003906 C 244.824219 281.625 244.527344 282.332031 243.910156 282.585938 C 243.289062 282.839844 242.585938 282.542969 242.332031 281.925781 L 224.90625 239.738281 C 224.652344 239.117188 224.949219 238.410156 225.566406 238.15625 C 226.183594 237.902344 226.890625 238.199219 227.140625 238.816406 Z M 130.640625 11.5 C 130.386719 10.882812 130.679688 10.175781 131.296875 9.921875 C 131.914062 9.667969 132.625 9.960938 132.875 10.578125 L 150.300781 52.769531 C 150.554688 53.386719 150.261719 54.09375 149.644531 54.347656 C 149.023438 54.601562 148.316406 54.304688 148.0625 53.6875 Z M 277.488281 261.644531 L 249.742188 225.410156 C 249.335938 224.878906 248.574219 224.777344 248.042969 225.183594 C 247.511719 225.589844 247.410156 226.347656 247.816406 226.882812 L 275.5625 263.113281 C 275.964844 263.648438 276.726562 263.746094 277.257812 263.34375 C 277.789062 262.9375 277.890625 262.175781 277.488281 261.644531 Z M 97.722656 30.863281 L 125.464844 67.09375 C 125.871094 67.625 126.632812 67.730469 127.164062 67.324219 C 127.695312 66.914062 127.796875 66.15625 127.390625 65.625 L 99.648438 29.390625 C 99.242188 28.859375 98.480469 28.757812 97.949219 29.164062 C 97.417969 29.570312 97.316406 30.328125 97.722656 30.863281 Z M 304.289062 234.453125 C 304.820312 234.859375 304.914062 235.617188 304.507812 236.148438 C 304.097656 236.675781 303.339844 236.773438 302.808594 236.367188 L 266.632812 208.546875 C 266.101562 208.140625 266.007812 207.378906 266.414062 206.851562 C 266.820312 206.324219 267.582031 206.226562 268.113281 206.632812 Z M 70.917969 58.054688 C 70.390625 57.648438 70.292969 56.886719 70.699219 56.355469 C 71.109375 55.828125 71.871094 55.730469 72.398438 56.140625 L 108.574219 83.957031 C 109.105469 84.367188 109.203125 85.125 108.792969 85.65625 C 108.386719 86.183594 107.625 86.28125 107.097656 85.871094 Z M 323.167969 201.253906 C 323.785156 201.511719 324.078125 202.222656 323.824219 202.839844 C 323.566406 203.457031 322.859375 203.75 322.238281 203.496094 L 280.085938 185.984375 C 279.46875 185.726562 279.175781 185.015625 279.433594 184.398438 C 279.6875 183.78125 280.398438 183.488281 281.015625 183.746094 Z M 52.039062 91.25 C 51.421875 90.992188 51.128906 90.285156 51.382812 89.667969 C 51.640625 89.050781 52.351562 88.753906 52.96875 89.011719 L 95.121094 106.523438 C 95.738281 106.78125 96.035156 107.488281 95.777344 108.105469 C 95.519531 108.726562 94.8125 109.019531 94.191406 108.761719 Z M 332.761719 164.292969 C 333.425781 164.378906 333.890625 164.988281 333.804688 165.648438 C 333.71875 166.3125 333.113281 166.78125 332.453125 166.691406 L 287.207031 160.691406 C 286.546875 160.601562 286.078125 159.996094 286.164062 159.335938 C 286.25 158.671875 286.855469 158.203125 287.519531 158.289062 Z M 42.445312 128.210938 C 41.78125 128.125 41.316406 127.519531 41.402344 126.855469 C 41.488281 126.195312 42.09375 125.726562 42.757812 125.8125 L 88 131.816406 C 88.664062 131.902344 89.128906 132.511719 89.042969 133.171875 C 88.957031 133.835938 88.351562 134.300781 87.6875 134.214844 Z M 332.492188 126.109375 C 333.152344 126.023438 333.761719 126.488281 333.847656 127.152344 C 333.933594 127.8125 333.464844 128.421875 332.804688 128.507812 L 287.546875 134.417969 C 286.886719 134.503906 286.28125 134.039062 286.195312 133.375 C 286.105469 132.714844 286.570312 132.105469 287.234375 132.019531 Z M 42.714844 166.398438 C 42.054688 166.484375 41.445312 166.015625 41.359375 165.355469 C 41.273438 164.691406 41.742188 164.085938 42.402344 164 L 87.660156 158.085938 C 88.324219 158 88.929688 158.46875 89.015625 159.128906 C 89.101562 159.792969 88.636719 160.402344 87.972656 160.488281 Z M 322.355469 89.289062 C 322.976562 89.035156 323.683594 89.328125 323.9375 89.949219 C 324.191406 90.566406 323.894531 91.273438 323.277344 91.523438 L 281.089844 108.953125 C 280.46875 109.203125 279.761719 108.910156 279.507812 108.292969 C 279.253906 107.675781 279.550781 106.96875 280.167969 106.714844 Z M 52.851562 203.21875 C 52.234375 203.472656 51.527344 203.175781 51.273438 202.558594 C 51.019531 201.941406 51.3125 201.234375 51.929688 200.980469 L 94.121094 183.554688 C 94.738281 183.300781 95.445312 183.597656 95.699219 184.214844 C 95.953125 184.832031 95.65625 185.539062 95.039062 185.792969 Z M 302.996094 56.371094 L 266.761719 84.117188 C 266.230469 84.519531 266.128906 85.28125 266.535156 85.8125 C 266.941406 86.34375 267.699219 86.445312 268.230469 86.042969 L 304.464844 58.296875 C 304.996094 57.890625 305.097656 57.128906 304.691406 56.597656 C 304.289062 56.066406 303.527344 55.964844 302.996094 56.371094 Z M 72.214844 236.136719 L 108.445312 208.390625 C 108.976562 207.984375 109.078125 207.222656 108.675781 206.691406 C 108.269531 206.160156 107.507812 206.058594 106.976562 206.464844 L 70.742188 234.210938 C 70.210938 234.613281 70.109375 235.375 70.515625 235.90625 C 70.921875 236.4375 71.679688 236.539062 72.214844 236.136719 Z M 275.804688 29.566406 C 276.210938 29.039062 276.972656 28.941406 277.5 29.351562 C 278.027344 29.757812 278.125 30.519531 277.71875 31.046875 L 249.898438 67.226562 C 249.492188 67.753906 248.730469 67.851562 248.203125 67.445312 C 247.671875 67.035156 247.574219 66.273438 247.984375 65.746094 Z M 99.40625 262.9375 C 98.996094 263.46875 98.238281 263.566406 97.707031 263.15625 C 97.179688 262.746094 97.082031 261.988281 97.492188 261.457031 L 125.308594 225.28125 C 125.71875 224.753906 126.476562 224.65625 127.007812 225.0625 C 127.535156 225.472656 127.632812 226.230469 127.222656 226.761719 Z M 242.605469 10.6875 C 242.863281 10.070312 243.574219 9.777344 244.191406 10.03125 C 244.808594 10.289062 245.101562 11 244.84375 11.617188 L 227.335938 53.769531 C 227.078125 54.386719 226.367188 54.683594 225.75 54.425781 C 225.128906 54.167969 224.839844 53.460938 225.09375 52.839844 Z M 132.601562 281.816406 C 132.34375 282.4375 131.636719 282.726562 131.019531 282.472656 C 130.398438 282.214844 130.105469 281.507812 130.363281 280.886719 L 147.875 238.734375 C 148.132812 238.117188 148.839844 237.824219 149.457031 238.078125 C 150.074219 238.335938 150.367188 239.046875 150.113281 239.664062 Z M 154.675781 26.972656 C 154.503906 26.328125 154.886719 25.664062 155.53125 25.488281 C 156.179688 25.316406 156.84375 25.699219 157.015625 26.347656 L 159.179688 34.414062 C 159.351562 35.058594 158.96875 35.726562 158.320312 35.898438 C 157.675781 36.070312 157.007812 35.6875 156.835938 35.039062 L 154.675781 26.972656 " fill-opacity="1" fill-rule="evenodd"/></g></svg>